<?xml version="1.0" encoding="UTF-8"?>
<svg xmlns="http://www.w3.org/2000/svg" xmlns:xlink="http://www.w3.org/1999/xlink" width="384pt" height="384pt" viewBox="0 0 384 384" version="1.1">
<g id="surface4117029">
<path style=" stroke:none;fill-rule:nonzero;fill:rgb(100%,100%,100%);fill-opacity:1;" d="M 48 80 C 42.230469 79.917969 36.863281 82.949219 33.953125 87.933594 C 31.042969 92.917969 31.042969 99.082031 33.953125 104.066406 C 36.863281 109.050781 42.230469 112.082031 48 112 L 336 112 C 341.769531 112.082031 347.136719 109.050781 350.046875 104.066406 C 352.957031 99.082031 352.957031 92.917969 350.046875 87.933594 C 347.136719 82.949219 341.769531 79.917969 336 80 Z M 48 176 C 42.230469 175.917969 36.863281 178.949219 33.953125 183.933594 C 31.042969 188.917969 31.042969 195.082031 33.953125 200.066406 C 36.863281 205.050781 42.230469 208.082031 48 208 L 336 208 C 341.769531 208.082031 347.136719 205.050781 350.046875 200.066406 C 352.957031 195.082031 352.957031 188.917969 350.046875 183.933594 C 347.136719 178.949219 341.769531 175.917969 336 176 Z M 48 272 C 42.230469 271.917969 36.863281 274.949219 33.953125 279.933594 C 31.042969 284.917969 31.042969 291.082031 33.953125 296.066406 C 36.863281 301.050781 42.230469 304.082031 48 304 L 336 304 C 341.769531 304.082031 347.136719 301.050781 350.046875 296.066406 C 352.957031 291.082031 352.957031 284.917969 350.046875 279.933594 C 347.136719 274.949219 341.769531 271.917969 336 272 Z M 48 272 "/>
</g>
</svg>
